<?xml version="1.0" encoding="UTF-8"?><svg xmlns="http://www.w3.org/2000/svg" viewBox="0 0 476.08 348.5"><defs><style>.d{fill:#4bccec;}</style></defs><g id="a"/><g id="b"><g id="c"><g><path class="d" d="M238.46,233.9c-29.67,0-57.56-11.55-78.53-32.53-20.98-20.98-32.53-48.87-32.53-78.53s11.55-57.56,32.53-78.53c20.98-20.98,48.87-32.53,78.53-32.53s57.56,11.55,78.53,32.53c20.98,20.98,32.53,48.87,32.53,78.53s-11.55,57.56-32.53,78.53c-20.98,20.98-48.87,32.53-78.53,32.53Zm0-198.71c-48.33,0-87.64,39.32-87.64,87.64s39.32,87.64,87.64,87.64,87.64-39.32,87.64-87.64-39.32-87.64-87.64-87.64Z"/><path d="M351.7,75.05c12.69-29.68,12.75-52.9,.09-65.55-12.65-12.65-35.87-12.59-65.54,.1-14.92-6.3-31.1-9.6-47.79-9.6-32.81,0-63.66,12.78-86.86,35.98-23.2,23.2-35.98,54.05-35.98,86.86,0,16.68,3.3,32.86,9.6,47.79-12.69,29.68-12.75,52.9-.09,65.55,6.3,6.3,15.23,9.45,26.29,9.45s24.38-3.19,39.26-9.55c14.92,6.3,31.1,9.6,47.79,9.6,32.81,0,63.66-12.77,86.86-35.98,23.2-23.2,35.98-54.05,35.98-86.86,0-16.68-3.3-32.86-9.6-47.78Zm-26.22-63.33c7.82,0,13.98,2.01,18.03,6.06,7.73,7.73,8.04,23.13,1.11,43.15-5.26-9-11.73-17.39-19.3-24.96-7.57-7.57-15.95-14.03-24.95-19.3,9.52-3.29,18-4.96,25.11-4.96ZM133.41,227.89c-7.73-7.73-8.04-23.13-1.11-43.15,5.27,9,11.73,17.39,19.3,24.96,7.57,7.57,15.95,14.03,24.96,19.3-20.02,6.93-35.42,6.63-43.15-1.11Zm105.05,6.08c-11.48,0-22.55-1.75-32.97-4.99,16.6-8.78,33.93-20.59,50.99-34.71v22.43c0,.71,.57,1.28,1.28,1.28h9.15c.71,0,1.28-.57,1.28-1.28v-39.85c0-.71-.57-1.28-1.28-1.28h-39.85c-.71,0-1.28,.57-1.28,1.28v9.15c0,.71,.57,1.28,1.28,1.28h19.48c-18.86,15.34-37.94,27.67-55.76,35.93-37.49-17.87-63.45-56.15-63.45-100.37,0-61.27,49.85-111.12,111.13-111.12,44.22,0,82.5,25.96,100.37,63.45-12.64,27.28-34.82,57.49-62.69,85.36l8.28,8.28c14.83-14.83,28.12-30.34,39.33-45.8,8.1-11.17,15.12-22.31,20.84-33.14,3.25,10.42,4.99,21.5,4.99,32.97,0,61.28-49.85,111.13-111.13,111.13Z"/><g><path d="M19.28,338.33c-5.66,0-10.29-1.93-13.88-5.79-3.6-3.86-5.4-8.99-5.4-15.4s1.82-11.56,5.45-15.35c3.6-3.82,8.23-5.73,13.88-5.73,5.1,0,9.24,1.35,12.42,4.05,3.18,2.74,5.04,6.45,5.56,11.13h-10.23c-.34-2.1-1.15-3.71-2.44-4.83s-2.97-1.69-5.03-1.69c-2.89,0-5.12,1.09-6.72,3.26-1.59,2.17-2.39,5.21-2.39,9.11s.8,7.17,2.39,9.36c1.59,2.19,3.83,3.29,6.72,3.29,4.35,0,6.84-2.34,7.48-7.03h10.23c-.38,4.91-2.17,8.73-5.4,11.47-3.3,2.77-7.51,4.16-12.65,4.16Z"/><path d="M58.68,307.02c.94,0,1.85,.13,2.75,.39v8.54c-.71-.11-1.42-.17-2.14-.17-5.06,0-7.59,2.59-7.59,7.76v13.49h-9.67v-29h9.16l.11,4.16c1.54-3.45,3.99-5.17,7.36-5.17Z"/><path d="M75.43,304.32h-9.67v-7.31h9.67v7.31Zm0,32.71h-9.67v-29h9.67v29Z"/><path d="M94.77,338.16c-4.2,0-7.5-.87-9.89-2.61-2.4-1.74-3.8-4.21-4.22-7.39l9.05-.17c.34,2.66,2.14,3.99,5.4,3.99,1.46,0,2.61-.27,3.46-.82,.84-.54,1.26-1.3,1.26-2.28,0-1.46-1.18-2.38-3.54-2.75l-5.06-.73c-6.6-.9-9.89-3.77-9.89-8.6,0-3.04,1.16-5.4,3.48-7.11,2.32-1.71,5.51-2.56,9.56-2.56s7.01,.81,9.33,2.42c2.32,1.61,3.69,3.88,4.1,6.8l-8.71,.22c-.41-2.32-2.06-3.49-4.95-3.49-1.24,0-2.22,.24-2.95,.73-.73,.49-1.1,1.14-1.1,1.97,0,1.5,1.1,2.42,3.32,2.75l5.28,.84c6.74,.97,10.12,3.88,10.12,8.71,0,3.22-1.25,5.71-3.74,7.45-2.49,1.74-5.93,2.61-10.31,2.61Z"/><path d="M130.85,314.33l-5.34-.17v12.48c0,1.99,.92,2.98,2.75,2.98h2.59v7.42h-5.9c-3.37,0-5.73-.68-7.08-2.05-1.35-1.37-2.02-3.74-2.02-7.11v-13.66l-4.22,.11v-6.3l4.22,.11v-8.94h9.67v8.99l5.34-.17v6.3Z"/><path d="M145.3,304.32h-9.67v-7.31h9.67v7.31Zm0,32.71h-9.67v-29h9.67v29Z"/><path d="M180.03,337.04h-9.67c-.45-1.2-.73-2.25-.84-3.15-2.02,2.77-5.08,4.16-9.16,4.16-3.15,0-5.66-.81-7.53-2.42-1.87-1.61-2.81-3.77-2.81-6.46,0-4.76,3-7.66,8.99-8.71l10.12-1.8v-2.08c0-1.91-1.42-2.87-4.27-2.87-1.39,0-2.42,.27-3.09,.82-.67,.54-1.09,1.43-1.24,2.67l-9.05-.28c.34-3.33,1.59-5.79,3.77-7.36,2.17-1.57,5.45-2.36,9.84-2.36,9.03,0,13.55,3.54,13.55,10.62v12.54c0,2.85,.47,5.08,1.41,6.69Zm-16.58-5.51c1.76,0,3.18-.5,4.27-1.49,1.09-.99,1.63-2.41,1.63-4.24v-1.74l-6.18,1.24c-2.44,.53-3.65,1.59-3.65,3.2,0,2.02,1.31,3.04,3.93,3.04Z"/><path d="M203.25,307.25c3.22,0,5.74,.93,7.56,2.78,1.82,1.86,2.73,4.45,2.73,7.79v19.22h-9.67v-16.97c0-1.46-.35-2.59-1.04-3.4-.69-.8-1.68-1.21-2.95-1.21-1.5,0-2.71,.56-3.63,1.69-.92,1.12-1.38,2.6-1.38,4.44v15.46h-9.67v-29h9.11l.28,3.88c1.99-3.11,4.87-4.67,8.66-4.67Z"/><path d="M234.5,297.02h16.86c6.22,0,10.96,1.72,14.22,5.17,3.26,3.45,4.89,8.39,4.89,14.84s-1.56,11.25-4.67,14.75c-3.11,3.5-7.66,5.26-13.66,5.26h-17.65v-40.02Zm10.51,31.2h5.34c6.41,0,9.61-3.73,9.61-11.19,0-3.86-.82-6.72-2.45-8.57-1.63-1.86-4.21-2.78-7.73-2.78h-4.78v22.54Z"/><path d="M285.26,304.32h-9.67v-7.31h9.67v7.31Zm0,32.71h-9.67v-29h9.67v29Z"/><path d="M330.67,320.29v-23.27h10.34v40.02h-10.51l-13.88-23.16v23.16h-10.4v-40.02h10.4l14.05,23.27Z"/><path d="M376.2,337.04h-9.67c-.45-1.2-.73-2.25-.84-3.15-2.02,2.77-5.08,4.16-9.16,4.16-3.15,0-5.66-.81-7.53-2.42-1.87-1.61-2.81-3.77-2.81-6.46,0-4.76,3-7.66,8.99-8.71l10.12-1.8v-2.08c0-1.91-1.42-2.87-4.27-2.87-1.39,0-2.42,.27-3.09,.82-.67,.54-1.09,1.43-1.24,2.67l-9.05-.28c.34-3.33,1.59-5.79,3.77-7.36,2.17-1.57,5.45-2.36,9.84-2.36,9.03,0,13.55,3.54,13.55,10.62v12.54c0,2.85,.47,5.08,1.41,6.69Zm-16.58-5.51c1.76,0,3.18-.5,4.27-1.49,1.09-.99,1.63-2.41,1.63-4.24v-1.74l-6.18,1.24c-2.44,.53-3.65,1.59-3.65,3.2,0,2.02,1.31,3.04,3.93,3.04Z"/><path d="M399.47,307.13c3.48,0,6.37,1.37,8.66,4.1,2.29,2.74,3.43,6.48,3.43,11.24s-1.14,8.58-3.43,11.35c-2.29,2.85-5.3,4.27-9.05,4.27-3.37,0-6.05-1.22-8.04-3.65v14.05h-9.67v-40.47h8.83l.28,3.37c2.29-2.85,5.28-4.27,8.99-4.27Zm-2.98,22.82c1.69,0,3.01-.66,3.96-1.97,.96-1.31,1.43-3.18,1.43-5.62s-.48-4.25-1.43-5.56c-.96-1.31-2.28-1.97-3.96-1.97s-3.11,.68-4.16,2.05c-1.05,1.37-1.57,3.19-1.57,5.48s.52,4.12,1.57,5.51c1.05,1.39,2.44,2.08,4.16,2.08Z"/><path d="M441.57,333.78c-2.89,2.89-6.63,4.33-11.24,4.33s-8.36-1.44-11.24-4.33c-2.89-2.89-4.33-6.61-4.33-11.19s1.44-8.24,4.33-11.13c2.89-2.88,6.63-4.33,11.24-4.33s8.36,1.44,11.24,4.33c2.88,2.89,4.33,6.6,4.33,11.13s-1.44,8.3-4.33,11.19Zm-15.63-4.95c1.01,1.46,2.47,2.19,4.38,2.19s3.35-.73,4.44-2.19c1.01-1.42,1.52-3.5,1.52-6.24s-.52-4.77-1.55-6.21c-1.03-1.44-2.5-2.16-4.41-2.16s-3.37,.72-4.38,2.16c-1.01,1.44-1.52,3.51-1.52,6.21s.51,4.82,1.52,6.24Z"/><path d="M460.23,337.04h-9.67v-40.02h9.67v40.02Z"/><path d="M476.08,304.32h-9.67v-7.31h9.67v7.31Zm0,32.71h-9.67v-29h9.67v29Z"/></g></g></g></g></svg>